<?xml version="1.0" standalone="no"?>
<!DOCTYPE svg PUBLIC "-//W3C//DTD SVG 20010904//EN"
 "http://www.w3.org/TR/2001/REC-SVG-20010904/DTD/svg10.dtd">
<svg version="1.0" xmlns="http://www.w3.org/2000/svg"
 width="1200.000000pt" height="1200.000000pt" viewBox="0 0 1200.000000 1200.000000"
 preserveAspectRatio="xMidYMid meet">
<metadata>
Created by potrace 1.14, written by Peter Selinger 2001-2017
</metadata>
<g transform="translate(0.000000,1200.000000) scale(0.100000,-0.100000)"
fill="#000000" stroke="none">
<path d="M5718 11995 c-2 -2 -53 -6 -113 -9 -61 -3 -128 -8 -150 -10 -22 -3
-83 -10 -135 -16 -52 -6 -111 -12 -130 -15 -37 -4 -150 -22 -186 -29 -12 -2
-37 -7 -55 -10 -77 -13 -103 -18 -159 -31 -15 -4 -91 -17 -97 -17 -5 0 -18 -4
-31 -9 -13 -5 -37 -11 -55 -14 -138 -24 -541 -150 -777 -242 -251 -98 -666
-294 -752 -354 -14 -11 -29 -19 -32 -19 -24 0 -443 -270 -596 -384 -41 -30
-86 -64 -99 -73 -55 -40 -294 -239 -371 -308 -92 -83 -371 -364 -452 -455
-519 -583 -887 -1201 -1176 -1975 -76 -202 -193 -624 -237 -855 -21 -109 -23
-118 -29 -160 -3 -19 -8 -46 -10 -59 -3 -12 -7 -42 -10 -65 -3 -22 -10 -72
-15 -111 -5 -38 -13 -104 -16 -145 -4 -41 -8 -80 -10 -86 -25 -82 -26 -855 -1
-1084 3 -19 7 -62 10 -95 3 -33 8 -71 10 -85 2 -14 7 -51 11 -84 4 -32 8 -68
10 -80 2 -11 6 -37 9 -56 15 -98 58 -314 87 -435 11 -49 23 -97 24 -105 26
-116 142 -485 200 -635 101 -263 253 -591 369 -795 32 -58 67 -119 76 -136 62
-109 229 -363 334 -504 351 -478 795 -924 1266 -1271 602 -446 1284 -776 2005
-970 61 -17 120 -32 132 -35 12 -2 69 -15 125 -28 194 -45 506 -97 678 -112
41 -3 84 -8 95 -10 129 -25 885 -24 1080 1 17 2 62 7 100 10 39 3 99 11 135
16 36 6 81 13 100 15 41 5 145 22 176 28 12 2 37 7 55 10 199 34 508 113 757
195 329 109 555 203 862 360 91 47 175 89 187 95 13 6 23 14 23 19 0 4 5 7 10
7 26 0 414 246 580 368 75 55 301 231 310 241 3 3 37 33 75 66 117 100 164
143 330 310 207 207 278 286 441 490 616 770 1034 1683 1212 2650 11 61 23
130 27 155 4 25 8 56 10 70 12 74 25 173 31 235 3 39 8 84 10 100 13 131 18
283 18 545 0 268 -4 377 -19 535 -2 22 -7 67 -10 100 -3 33 -7 71 -10 85 -2
14 -7 48 -10 75 -10 82 -63 385 -80 460 -9 39 -18 78 -20 88 -14 67 -74 288
-116 427 -248 806 -685 1579 -1257 2220 -131 147 -421 431 -572 559 -260 221
-649 499 -855 611 -16 8 -50 28 -75 42 -147 87 -416 221 -617 307 -139 59
-492 191 -513 191 -5 0 -18 4 -28 9 -30 16 -380 111 -466 127 -16 2 -32 7 -36
9 -6 4 -20 7 -92 20 -15 3 -74 14 -130 26 -57 11 -123 22 -148 25 -25 2 -67 9
-95 14 -27 5 -79 12 -115 16 -36 3 -72 8 -80 9 -8 2 -58 6 -110 10 -52 4 -108
9 -125 12 -35 5 -692 13 -697 8z"/>
</g>
</svg>
