<?xml version="1.0" encoding="UTF-8" standalone="yes"?>
<svg version="1.2" width="100%" viewBox="0 0 1200 1200" xml:space="preserve" baseProfile="tiny-ps" xmlns="http://www.w3.org/2000/svg">
  <title>bimi-svg-tiny-12-ps</title>
  <path fill="#000000" stroke="none" d="&#xA;M552.000000,1201.000000 &#xA;&#x9;C368.403748,1201.000000 184.807510,1201.000000 1.000000,1201.000000 &#xA;&#x9;C1.000000,1017.640869 1.000000,834.281677 1.367831,650.148193 &#xA;&#x9;C2.489568,654.309937 3.377382,659.230042 3.968461,664.185547 &#xA;&#x9;C5.070132,673.421692 5.486684,682.769592 7.112061,691.906677 &#xA;&#x9;C10.049659,708.420471 13.316707,724.893921 17.079775,741.238342 &#xA;&#x9;C23.028261,767.074890 30.867525,792.387207 40.596401,817.048279 &#xA;&#x9;C49.983269,840.842529 59.947521,864.413391 72.914894,886.556763 &#xA;&#x9;C81.936218,901.961853 90.531334,917.655151 100.317635,932.562622 &#xA;&#x9;C109.630592,946.749146 119.671120,960.551147 130.425629,973.674988 &#xA;&#x9;C144.322128,990.632996 159.029465,1006.946777 173.818710,1023.144348 &#xA;&#x9;C181.057388,1031.072388 189.149323,1038.242676 197.076736,1045.514282 &#xA;&#x9;C204.911407,1052.700806 212.640320,1060.091797 221.098343,1066.490601 &#xA;&#x9;C237.726654,1079.070679 254.387924,1091.703247 271.857422,1103.048584 &#xA;&#x9;C289.506744,1114.510620 307.799835,1125.114380 326.462097,1134.845337 &#xA;&#x9;C343.838745,1143.905884 361.793884,1152.023438 380.006653,1159.268066 &#xA;&#x9;C398.595856,1166.662354 417.529572,1173.524292 436.822784,1178.726807 &#xA;&#x9;C458.595520,1184.598022 480.855652,1188.803589 503.059875,1192.884277 &#xA;&#x9;C518.248901,1195.675659 533.709167,1196.983154 549.032166,1199.070801 &#xA;&#x9;C550.089417,1199.214844 551.013794,1200.334229 552.000000,1201.000000 &#xA;z"/>
  <path fill="#000000" stroke="none" d="&#xA;M1201.000000,650.000000 &#xA;&#x9;C1201.000000,833.596313 1201.000000,1017.192627 1201.000000,1201.000000 &#xA;&#x9;C1017.307556,1201.000000 833.614990,1201.000000 649.137817,1200.635254 &#xA;&#x9;C652.199463,1199.840454 656.058716,1199.502808 659.889465,1198.962646 &#xA;&#x9;C671.310425,1197.352417 682.748413,1195.833984 694.127197,1193.960327 &#xA;&#x9;C707.681824,1191.728271 721.343628,1189.828735 734.666382,1186.583984 &#xA;&#x9;C752.932190,1182.135132 771.158020,1177.256470 788.966187,1171.268799 &#xA;&#x9;C807.337158,1165.091919 825.555481,1158.170532 843.171143,1150.111572 &#xA;&#x9;C865.094360,1140.081665 886.813416,1129.393066 907.715576,1117.410156 &#xA;&#x9;C925.013245,1107.493652 941.562317,1096.024902 957.419983,1083.905396 &#xA;&#x9;C977.215454,1068.776367 996.802734,1053.167847 1014.918274,1036.108154 &#xA;&#x9;C1032.037109,1019.986877 1047.685791,1002.187805 1062.949219,984.248779 &#xA;&#x9;C1075.745728,969.209351 1087.800537,953.408020 1098.852905,937.045227 &#xA;&#x9;C1116.870361,910.370544 1133.314697,882.661865 1145.931519,852.938599 &#xA;&#x9;C1154.339478,833.130554 1162.663696,813.243103 1169.874268,792.981567 &#xA;&#x9;C1179.368896,766.302551 1186.801880,738.969727 1190.997681,710.889038 &#xA;&#x9;C1193.878296,691.610718 1196.324341,672.267639 1199.069336,652.968384 &#xA;&#x9;C1199.220093,651.908813 1200.334229,650.986267 1201.000000,650.000000 &#xA;z"/>
  <path fill="#000000" stroke="none" d="&#xA;M0.999997,552.000000 &#xA;&#x9;C1.000000,368.403748 1.000000,184.807510 1.000000,1.000000 &#xA;&#x9;C184.359116,1.000000 367.718323,1.000000 551.868286,1.360349 &#xA;&#x9;C551.983276,2.138295 551.340515,2.849194 550.626953,2.929175 &#xA;&#x9;C541.049866,4.002633 531.420837,4.694468 521.888367,6.063924 &#xA;&#x9;C507.463959,8.136178 493.004700,10.176317 478.740479,13.107312 &#xA;&#x9;C453.393616,18.315563 428.520233,25.247854 404.043182,33.826981 &#xA;&#x9;C372.874481,44.751507 342.576233,57.498566 313.819916,73.728119 &#xA;&#x9;C298.698975,82.262085 283.634216,90.984520 269.167694,100.563614 &#xA;&#x9;C255.022858,109.929688 241.335068,120.071556 228.061600,130.644867 &#xA;&#x9;C213.764130,142.033859 199.896103,154.007126 186.386749,166.324356 &#xA;&#x9;C177.473068,174.451416 169.382904,183.506012 161.183044,192.384552 &#xA;&#x9;C153.633163,200.559326 145.924911,208.667801 139.177368,217.487137 &#xA;&#x9;C124.846649,236.218063 110.638252,255.076096 97.224068,274.466156 &#xA;&#x9;C81.081917,297.799408 67.275642,322.614197 56.191059,348.725037 &#xA;&#x9;C46.169235,372.332367 36.804398,396.270569 28.393301,420.494659 &#xA;&#x9;C20.481308,443.281281 14.546089,466.732758 11.024354,490.669708 &#xA;&#x9;C8.138350,510.285614 5.677752,529.963928 2.926286,549.600281 &#xA;&#x9;C2.803992,550.473022 1.665269,551.203369 0.999997,552.000000 &#xA;z"/>
  <path fill="#000000" stroke="none" d="&#xA;M650.000000,1.000003 &#xA;&#x9;C833.596191,1.000000 1017.192383,1.000000 1201.000000,1.000000 &#xA;&#x9;C1201.000000,184.359116 1201.000000,367.718323 1200.632202,551.851807 &#xA;&#x9;C1199.851807,551.942627 1199.150635,551.291382 1199.069946,550.570679 &#xA;&#x9;C1197.997314,540.992004 1197.306274,531.361145 1195.935547,521.827393 &#xA;&#x9;C1193.864746,507.423615 1191.786743,492.994385 1188.901489,478.739990 &#xA;&#x9;C1183.733032,453.205841 1176.735718,428.158417 1168.085205,403.542175 &#xA;&#x9;C1157.291992,372.828491 1144.644531,342.951294 1128.782471,314.531738 &#xA;&#x9;C1120.073853,298.928894 1110.888062,283.543579 1101.040283,268.639709 &#xA;&#x9;C1091.873047,254.765915 1081.994629,241.298981 1071.604980,228.312531 &#xA;&#x9;C1059.872925,213.648193 1047.951050,198.999420 1034.782715,185.655273 &#xA;&#x9;C1018.601318,169.257629 1001.532043,153.640747 983.935181,138.764359 &#xA;&#x9;C968.881714,126.038078 952.937500,114.257980 936.681946,103.085579 &#xA;&#x9;C910.116943,84.827621 882.277039,68.622650 852.556091,55.949486 &#xA;&#x9;C833.945374,48.013817 815.360168,39.893799 796.302917,33.159828 &#xA;&#x9;C768.529297,23.345840 740.159973,15.357703 710.931885,11.002540 &#xA;&#x9;C691.637878,8.127619 672.281006,5.676290 652.967102,2.930582 &#xA;&#x9;C651.907959,2.780012 650.985901,1.665710 650.000000,1.000003 &#xA;z"/>
  <path fill="#FED4D4" stroke="none" d="&#xA;M649.531372,1.000003 &#xA;&#x9;C650.985901,1.665710 651.907959,2.780012 652.967102,2.930582 &#xA;&#x9;C672.281006,5.676290 691.637878,8.127619 710.931885,11.002540 &#xA;&#x9;C740.159973,15.357703 768.529297,23.345840 796.302917,33.159828 &#xA;&#x9;C815.360168,39.893799 833.945374,48.013817 852.556091,55.949486 &#xA;&#x9;C882.277039,68.622650 910.116943,84.827621 936.681946,103.085579 &#xA;&#x9;C952.937500,114.257980 968.881714,126.038078 983.935181,138.764359 &#xA;&#x9;C1001.532043,153.640747 1018.601318,169.257629 1034.782715,185.655273 &#xA;&#x9;C1047.951050,198.999420 1059.872925,213.648193 1071.604980,228.312531 &#xA;&#x9;C1081.994629,241.298981 1091.873047,254.765915 1101.040283,268.639709 &#xA;&#x9;C1110.888062,283.543579 1120.073853,298.928894 1128.782471,314.531738 &#xA;&#x9;C1144.644531,342.951294 1157.291992,372.828491 1168.085205,403.542175 &#xA;&#x9;C1176.735718,428.158417 1183.733032,453.205841 1188.901489,478.739990 &#xA;&#x9;C1191.786743,492.994385 1193.864746,507.423615 1195.935547,521.827393 &#xA;&#x9;C1197.306274,531.361145 1197.997314,540.992004 1199.069946,550.570679 &#xA;&#x9;C1199.150635,551.291382 1199.851807,551.942627 1200.632202,552.313110 &#xA;&#x9;C1201.000000,584.354248 1201.000000,616.708435 1201.000000,649.531372 &#xA;&#x9;C1200.334229,650.986267 1199.220093,651.908813 1199.069336,652.968384 &#xA;&#x9;C1196.324341,672.267639 1193.878296,691.610718 1190.997681,710.889038 &#xA;&#x9;C1186.801880,738.969727 1179.368896,766.302551 1169.874268,792.981567 &#xA;&#x9;C1162.663696,813.243103 1154.339478,833.130554 1145.931519,852.938599 &#xA;&#x9;C1133.314697,882.661865 1116.870361,910.370544 1098.852905,937.045227 &#xA;&#x9;C1087.800537,953.408020 1075.745728,969.209351 1062.949219,984.248779 &#xA;&#x9;C1047.685791,1002.187805 1032.037109,1019.986877 1014.918274,1036.108154 &#xA;&#x9;C996.802734,1053.167847 977.215454,1068.776367 957.419983,1083.905396 &#xA;&#x9;C941.562317,1096.024902 925.013245,1107.493652 907.715576,1117.410156 &#xA;&#x9;C886.813416,1129.393066 865.094360,1140.081665 843.171143,1150.111572 &#xA;&#x9;C825.555481,1158.170532 807.337158,1165.091919 788.966187,1171.268799 &#xA;&#x9;C771.158020,1177.256470 752.932190,1182.135132 734.666382,1186.583984 &#xA;&#x9;C721.343628,1189.828735 707.681824,1191.728271 694.127197,1193.960327 &#xA;&#x9;C682.748413,1195.833984 671.310425,1197.352417 659.889465,1198.962646 &#xA;&#x9;C656.058716,1199.502808 652.199463,1199.840454 648.676636,1200.635254 &#xA;&#x9;C616.979126,1201.000000 584.958191,1201.000000 552.468628,1201.000000 &#xA;&#x9;C551.013794,1200.334229 550.089417,1199.214844 549.032166,1199.070801 &#xA;&#x9;C533.709167,1196.983154 518.248901,1195.675659 503.059875,1192.884277 &#xA;&#x9;C480.855652,1188.803589 458.595520,1184.598022 436.822784,1178.726807 &#xA;&#x9;C417.529572,1173.524292 398.595856,1166.662354 380.006653,1159.268066 &#xA;&#x9;C361.793884,1152.023438 343.838745,1143.905884 326.462097,1134.845337 &#xA;&#x9;C307.799835,1125.114380 289.506744,1114.510620 271.857422,1103.048584 &#xA;&#x9;C254.387924,1091.703247 237.726654,1079.070679 221.098343,1066.490601 &#xA;&#x9;C212.640320,1060.091797 204.911407,1052.700806 197.076736,1045.514282 &#xA;&#x9;C189.149323,1038.242676 181.057388,1031.072388 173.818710,1023.144348 &#xA;&#x9;C159.029465,1006.946777 144.322128,990.632996 130.425629,973.674988 &#xA;&#x9;C119.671120,960.551147 109.630592,946.749146 100.317635,932.562622 &#xA;&#x9;C90.531334,917.655151 81.936218,901.961853 72.914894,886.556763 &#xA;&#x9;C59.947521,864.413391 49.983269,840.842529 40.596401,817.048279 &#xA;&#x9;C30.867525,792.387207 23.028261,767.074890 17.079775,741.238342 &#xA;&#x9;C13.316707,724.893921 10.049659,708.420471 7.112061,691.906677 &#xA;&#x9;C5.486684,682.769592 5.070132,673.421692 3.968461,664.185547 &#xA;&#x9;C3.377382,659.230042 2.489568,654.309937 1.367831,649.686951 &#xA;&#x9;C1.000000,617.645752 1.000000,585.291565 0.999997,552.468628 &#xA;&#x9;C1.665269,551.203369 2.803992,550.473022 2.926286,549.600281 &#xA;&#x9;C5.677752,529.963928 8.138350,510.285614 11.024354,490.669708 &#xA;&#x9;C14.546089,466.732758 20.481308,443.281281 28.393301,420.494659 &#xA;&#x9;C36.804398,396.270569 46.169235,372.332367 56.191059,348.725037 &#xA;&#x9;C67.275642,322.614197 81.081917,297.799408 97.224068,274.466156 &#xA;&#x9;C110.638252,255.076096 124.846649,236.218063 139.177368,217.487137 &#xA;&#x9;C145.924911,208.667801 153.633163,200.559326 161.183044,192.384552 &#xA;&#x9;C169.382904,183.506012 177.473068,174.451416 186.386749,166.324356 &#xA;&#x9;C199.896103,154.007126 213.764130,142.033859 228.061600,130.644867 &#xA;&#x9;C241.335068,120.071556 255.022858,109.929688 269.167694,100.563614 &#xA;&#x9;C283.634216,90.984520 298.698975,82.262085 313.819916,73.728119 &#xA;&#x9;C342.576233,57.498566 372.874481,44.751507 404.043182,33.826981 &#xA;&#x9;C428.520233,25.247854 453.393616,18.315563 478.740479,13.107312 &#xA;&#x9;C493.004700,10.176317 507.463959,8.136178 521.888367,6.063924 &#xA;&#x9;C531.420837,4.694468 541.049866,4.002633 550.626953,2.929175 &#xA;&#x9;C551.340515,2.849194 551.983276,2.138295 552.329468,1.360349 &#xA;&#x9;C584.354248,1.000000 616.708435,1.000000 649.531372,1.000003 &#xA;M1125.882568,854.347107 &#xA;&#x9;C1155.466919,792.883911 1173.824463,728.208130 1180.803345,660.378235 &#xA;&#x9;C1187.021606,599.940369 1183.951416,539.919495 1171.119385,480.492065 &#xA;&#x9;C1144.573242,357.550598 1085.418945,252.874496 991.807983,168.984802 &#xA;&#x9;C874.099304,63.499706 735.313782,13.749959 577.203003,18.833820 &#xA;&#x9;C516.158569,20.796629 456.954498,32.828873 399.732880,54.102451 &#xA;&#x9;C293.377350,93.642845 205.417725,158.371872 136.817093,248.773499 &#xA;&#x9;C69.897789,336.959473 31.414110,436.476074 20.795549,546.713501 &#xA;&#x9;C14.425425,612.845459 19.342064,678.179138 35.703297,742.522400 &#xA;&#x9;C65.392326,859.279419 124.946838,958.254517 215.468124,1037.775513 &#xA;&#x9;C322.116669,1131.464111 447.149231,1179.579712 588.939026,1183.648193 &#xA;&#x9;C649.805908,1185.394775 709.658752,1177.439453 767.816345,1159.297485 &#xA;&#x9;C930.136780,1108.662231 1049.271484,1006.961914 1125.882568,854.347107 &#xA;z"/>
  <path fill="#29364C" stroke="none" d="&#xA;M1125.709717,854.679443 &#xA;&#x9;C1049.271484,1006.961914 930.136780,1108.662231 767.816345,1159.297485 &#xA;&#x9;C709.658752,1177.439453 649.805908,1185.394775 588.939026,1183.648193 &#xA;&#x9;C447.149231,1179.579712 322.116669,1131.464111 215.468124,1037.775513 &#xA;&#x9;C124.946838,958.254517 65.392326,859.279419 35.703297,742.522400 &#xA;&#x9;C19.342064,678.179138 14.425425,612.845459 20.795549,546.713501 &#xA;&#x9;C31.414110,436.476074 69.897789,336.959473 136.817093,248.773499 &#xA;&#x9;C205.417725,158.371872 293.377350,93.642845 399.732880,54.102451 &#xA;&#x9;C456.954498,32.828873 516.158569,20.796629 577.203003,18.833820 &#xA;&#x9;C735.313782,13.749959 874.099304,63.499706 991.807983,168.984802 &#xA;&#x9;C1085.418945,252.874496 1144.573242,357.550598 1171.119385,480.492065 &#xA;&#x9;C1183.951416,539.919495 1187.021606,599.940369 1180.803345,660.378235 &#xA;&#x9;C1173.824463,728.208130 1155.466919,792.883911 1125.709717,854.679443 &#xA;M393.563293,612.063843 &#xA;&#x9;C328.505798,673.555115 280.244476,745.635132 255.516006,832.336060 &#xA;&#x9;C244.615814,870.553406 236.060715,909.188843 239.904266,949.448730 &#xA;&#x9;C243.866913,990.956299 258.413391,1028.011353 286.491028,1059.157715 &#xA;&#x9;C337.075165,1115.270752 415.288849,1129.675293 480.825775,1094.938232 &#xA;&#x9;C518.261536,1075.095947 544.129089,1044.216553 563.024109,1006.927551 &#xA;&#x9;C581.636230,970.196716 590.545654,930.658630 595.871582,890.267700 &#xA;&#x9;C601.834900,845.043396 607.392761,799.748840 612.064575,754.375488 &#xA;&#x9;C617.318420,703.349243 621.355896,652.198120 626.086548,601.116455 &#xA;&#x9;C626.260620,599.237183 627.727966,596.743286 629.328552,595.840637 &#xA;&#x9;C653.091492,582.439270 676.643799,568.606140 700.899597,556.147888 &#xA;&#x9;C774.032837,518.585083 849.489563,486.103821 925.539917,454.984222 &#xA;&#x9;C929.167297,453.499908 930.448242,451.775177 930.431213,447.754333 &#xA;&#x9;C930.256226,406.423462 930.323853,365.091583 930.323853,323.759979 &#xA;&#x9;C930.323853,322.161255 930.323853,320.562561 930.323853,318.093018 &#xA;&#x9;C830.571228,357.533508 732.799255,399.225769 637.382019,447.398682 &#xA;&#x9;C637.382019,445.792542 637.328918,444.821503 637.389771,443.857666 &#xA;&#x9;C639.279785,413.928711 641.265381,384.005524 643.057251,354.070740 &#xA;&#x9;C644.938843,322.637054 646.918884,291.205109 648.339905,259.749084 &#xA;&#x9;C649.948975,224.129654 651.026001,188.485596 652.128784,152.845886 &#xA;&#x9;C652.176331,151.309509 650.512634,148.866028 649.058533,148.263687 &#xA;&#x9;C621.101990,136.683212 593.075012,125.271255 564.979919,114.031120 &#xA;&#x9;C563.550232,113.459145 560.760071,114.136208 559.652161,115.263023 &#xA;&#x9;C552.761719,122.270897 546.029846,129.448151 539.503845,136.798721 &#xA;&#x9;C502.456848,178.526657 458.925385,212.054916 409.334991,237.297180 &#xA;&#x9;C371.858124,256.373444 333.494354,273.708710 295.501587,291.768890 &#xA;&#x9;C288.369141,295.159332 281.124573,298.313873 273.719879,301.673401 &#xA;&#x9;C292.044495,339.577881 310.100311,376.926270 328.301147,414.574738 &#xA;&#x9;C360.522034,399.783600 392.385040,385.869171 423.599792,370.627136 &#xA;&#x9;C454.855865,355.364929 485.464447,338.776703 516.406555,322.743958 &#xA;&#x9;C515.543091,337.516602 514.777832,352.810577 513.732971,368.085449 &#xA;&#x9;C510.254028,418.945160 506.591370,469.792572 503.274902,520.662720 &#xA;&#x9;C502.975037,525.261536 501.251404,527.679382 497.636688,530.092285 &#xA;&#x9;C460.998169,554.549988 426.170074,581.331848 393.563293,612.063843 &#xA;M927.366821,264.694794 &#xA;&#x9;C930.487854,264.049500 930.250610,261.641541 930.294189,259.285248 &#xA;&#x9;C931.046326,218.642227 931.824646,177.999695 932.579407,137.356720 &#xA;&#x9;C932.599792,136.259583 932.421082,135.158768 932.301025,133.622391 &#xA;&#x9;C930.663635,134.118851 929.425476,134.436920 928.226990,134.865768 &#xA;&#x9;C848.377686,163.437286 769.931152,195.534561 692.042480,229.020950 &#xA;&#x9;C690.371582,229.739258 688.568848,232.124588 688.351990,233.916702 &#xA;&#x9;C687.292480,242.672195 686.534241,251.478851 686.065186,260.288483 &#xA;&#x9;C684.364990,292.224487 682.796570,324.167633 681.252075,356.111633 &#xA;&#x9;C681.032959,360.642700 681.221741,365.193481 681.221741,370.043793 &#xA;&#x9;C699.238525,362.087036 716.976929,354.169556 734.781982,346.405121 &#xA;&#x9;C798.461243,318.635925 861.370544,289.052002 927.366821,264.694794 &#xA;z"/>
  <path fill="#FDD3D3" stroke="none" d="&#xA;M393.815277,611.814880 &#xA;&#x9;C426.170074,581.331848 460.998169,554.549988 497.636688,530.092285 &#xA;&#x9;C501.251404,527.679382 502.975037,525.261536 503.274902,520.662720 &#xA;&#x9;C506.591370,469.792572 510.254028,418.945160 513.732971,368.085449 &#xA;&#x9;C514.777832,352.810577 515.543091,337.516602 516.406555,322.743958 &#xA;&#x9;C485.464447,338.776703 454.855865,355.364929 423.599792,370.627136 &#xA;&#x9;C392.385040,385.869171 360.522034,399.783600 328.301147,414.574738 &#xA;&#x9;C310.100311,376.926270 292.044495,339.577881 273.719879,301.673401 &#xA;&#x9;C281.124573,298.313873 288.369141,295.159332 295.501587,291.768890 &#xA;&#x9;C333.494354,273.708710 371.858124,256.373444 409.334991,237.297180 &#xA;&#x9;C458.925385,212.054916 502.456848,178.526657 539.503845,136.798721 &#xA;&#x9;C546.029846,129.448151 552.761719,122.270897 559.652161,115.263023 &#xA;&#x9;C560.760071,114.136208 563.550232,113.459145 564.979919,114.031120 &#xA;&#x9;C593.075012,125.271255 621.101990,136.683212 649.058533,148.263687 &#xA;&#x9;C650.512634,148.866028 652.176331,151.309509 652.128784,152.845886 &#xA;&#x9;C651.026001,188.485596 649.948975,224.129654 648.339905,259.749084 &#xA;&#x9;C646.918884,291.205109 644.938843,322.637054 643.057251,354.070740 &#xA;&#x9;C641.265381,384.005524 639.279785,413.928711 637.389771,443.857666 &#xA;&#x9;C637.328918,444.821503 637.382019,445.792542 637.382019,447.398682 &#xA;&#x9;C732.799255,399.225769 830.571228,357.533508 930.323853,318.093018 &#xA;&#x9;C930.323853,320.562561 930.323853,322.161255 930.323853,323.759979 &#xA;&#x9;C930.323853,365.091583 930.256226,406.423462 930.431213,447.754333 &#xA;&#x9;C930.448242,451.775177 929.167297,453.499908 925.539917,454.984222 &#xA;&#x9;C849.489563,486.103821 774.032837,518.585083 700.899597,556.147888 &#xA;&#x9;C676.643799,568.606140 653.091492,582.439270 629.328552,595.840637 &#xA;&#x9;C627.727966,596.743286 626.260620,599.237183 626.086548,601.116455 &#xA;&#x9;C621.355896,652.198120 617.318420,703.349243 612.064575,754.375488 &#xA;&#x9;C607.392761,799.748840 601.834900,845.043396 595.871582,890.267700 &#xA;&#x9;C590.545654,930.658630 581.636230,970.196716 563.024109,1006.927551 &#xA;&#x9;C544.129089,1044.216553 518.261536,1075.095947 480.825775,1094.938232 &#xA;&#x9;C415.288849,1129.675293 337.075165,1115.270752 286.491028,1059.157715 &#xA;&#x9;C258.413391,1028.011353 243.866913,990.956299 239.904266,949.448730 &#xA;&#x9;C236.060715,909.188843 244.615814,870.553406 255.516006,832.336060 &#xA;&#x9;C280.244476,745.635132 328.505798,673.555115 393.815277,611.814880 &#xA;M624.680176,156.799271 &#xA;&#x9;C608.194702,150.059723 591.713928,143.308655 575.221863,136.585236 &#xA;&#x9;C566.262268,132.932617 566.198425,132.905212 559.783691,140.184235 &#xA;&#x9;C525.723450,178.833496 487.233246,212.162552 442.742218,238.413651 &#xA;&#x9;C407.831604,259.012024 371.282806,276.309418 334.409760,292.988007 &#xA;&#x9;C322.006317,298.598358 309.624115,304.255615 296.851196,310.064697 &#xA;&#x9;C310.109406,337.480835 323.173553,364.495636 336.406403,391.859344 &#xA;&#x9;C405.004211,360.625153 473.788574,331.472931 535.687256,287.311584 &#xA;&#x9;C535.687256,289.362427 535.722290,290.023743 535.682190,290.680481 &#xA;&#x9;C534.099976,316.613739 532.541809,342.548553 530.913269,368.478882 &#xA;&#x9;C529.545715,390.254120 528.174316,412.029602 526.661926,433.795074 &#xA;&#x9;C524.503235,464.861298 522.014343,495.906433 520.144531,526.989319 &#xA;&#x9;C519.756592,533.438538 517.784546,537.422180 512.267639,541.060791 &#xA;&#x9;C462.171875,574.100769 415.353119,611.112854 374.826874,655.674194 &#xA;&#x9;C326.417450,708.903625 290.964813,769.471191 271.490021,838.926697 &#xA;&#x9;C261.764404,873.612488 253.826736,908.639343 256.803375,945.193298 &#xA;&#x9;C259.824341,982.291626 271.968781,1015.745422 296.229309,1044.194946 &#xA;&#x9;C321.743378,1074.114502 354.112549,1092.191895 393.447540,1095.781738 &#xA;&#x9;C438.923492,1099.932129 477.579102,1084.039062 509.810852,1052.332031 &#xA;&#x9;C537.344055,1025.246948 554.091064,991.767456 564.932983,955.167480 &#xA;&#x9;C577.236511,913.633728 581.649597,870.670471 586.898499,827.904236 &#xA;&#x9;C590.467163,798.827332 593.397339,769.667542 596.275818,740.511536 &#xA;&#x9;C599.400085,708.866455 602.198730,677.188477 605.011475,645.513550 &#xA;&#x9;C606.572693,627.932190 607.854675,610.326233 609.307922,592.735107 &#xA;&#x9;C609.566345,589.606812 609.953796,586.853455 613.445312,584.968506 &#xA;&#x9;C647.280396,566.701965 680.548645,547.327271 714.855103,530.004822 &#xA;&#x9;C778.034607,498.103424 843.100525,470.271332 908.553345,443.381317 &#xA;&#x9;C912.033203,441.951660 913.238770,440.271118 913.217590,436.499634 &#xA;&#x9;C913.054077,407.335388 913.131531,378.169800 913.116516,349.004639 &#xA;&#x9;C913.115662,347.421387 912.955750,345.838196 912.827148,343.467438 &#xA;&#x9;C812.522400,383.964081 713.833008,426.345154 618.008057,476.983032 &#xA;&#x9;C618.128357,474.371216 618.175110,472.594421 618.297058,470.822845 &#xA;&#x9;C619.830017,448.559662 621.495789,426.304810 622.885193,404.032715 &#xA;&#x9;C624.782959,373.611847 626.670166,343.187958 628.205505,312.747375 &#xA;&#x9;C630.580078,265.668823 632.709473,218.577606 634.810791,171.485855 &#xA;&#x9;C635.281311,160.940765 635.029724,160.929535 624.680176,156.799271 &#xA;z"/>
  <path fill="#FDD3D3" stroke="none" d="&#xA;M926.985718,264.819214 &#xA;&#x9;C861.370544,289.052002 798.461243,318.635925 734.781982,346.405121 &#xA;&#x9;C716.976929,354.169556 699.238525,362.087036 681.221741,370.043793 &#xA;&#x9;C681.221741,365.193481 681.032959,360.642700 681.252075,356.111633 &#xA;&#x9;C682.796570,324.167633 684.364990,292.224487 686.065186,260.288483 &#xA;&#x9;C686.534241,251.478851 687.292480,242.672195 688.351990,233.916702 &#xA;&#x9;C688.568848,232.124588 690.371582,229.739258 692.042480,229.020950 &#xA;&#x9;C769.931152,195.534561 848.377686,163.437286 928.226990,134.865768 &#xA;&#x9;C929.425476,134.436920 930.663635,134.118851 932.301025,133.622391 &#xA;&#x9;C932.421082,135.158768 932.599792,136.259583 932.579407,137.356720 &#xA;&#x9;C931.824646,177.999695 931.046326,218.642227 930.294189,259.285248 &#xA;&#x9;C930.250610,261.641541 930.487854,264.049500 926.985718,264.819214 &#xA;M734.351685,327.858215 &#xA;&#x9;C792.791809,302.900696 851.221497,277.918457 909.704407,253.061523 &#xA;&#x9;C912.510010,251.869080 913.296570,250.366821 913.331970,247.515121 &#xA;&#x9;C913.573486,228.030106 914.031250,208.547821 914.295959,189.062973 &#xA;&#x9;C914.433655,178.926239 914.320190,168.786087 914.320190,158.305618 &#xA;&#x9;C912.547729,158.905136 910.497864,159.490906 908.529480,160.279770 &#xA;&#x9;C842.602051,186.702209 776.712708,213.220184 710.703369,239.436234 &#xA;&#x9;C705.506348,241.500229 704.176575,244.467911 703.948914,249.409958 &#xA;&#x9;C703.198120,265.706421 702.057312,281.984650 701.256531,298.279205 &#xA;&#x9;C700.532043,313.019318 700.057007,327.771729 699.447205,343.144135 &#xA;&#x9;C711.164856,337.998596 722.404053,333.063171 734.351685,327.858215 &#xA;z"/>
  <path fill="#FF4048" stroke="none" d="&#xA;M625.040649,156.931000 &#xA;&#x9;C635.029724,160.929535 635.281311,160.940765 634.810791,171.485855 &#xA;&#x9;C632.709473,218.577606 630.580078,265.668823 628.205505,312.747375 &#xA;&#x9;C626.670166,343.187958 624.782959,373.611847 622.885193,404.032715 &#xA;&#x9;C621.495789,426.304810 619.830017,448.559662 618.297058,470.822845 &#xA;&#x9;C618.175110,472.594421 618.128357,474.371216 618.008057,476.983032 &#xA;&#x9;C713.833008,426.345154 812.522400,383.964081 912.827148,343.467438 &#xA;&#x9;C912.955750,345.838196 913.115662,347.421387 913.116516,349.004639 &#xA;&#x9;C913.131531,378.169800 913.054077,407.335388 913.217590,436.499634 &#xA;&#x9;C913.238770,440.271118 912.033203,441.951660 908.553345,443.381317 &#xA;&#x9;C843.100525,470.271332 778.034607,498.103424 714.855103,530.004822 &#xA;&#x9;C680.548645,547.327271 647.280396,566.701965 613.445312,584.968506 &#xA;&#x9;C609.953796,586.853455 609.566345,589.606812 609.307922,592.735107 &#xA;&#x9;C607.854675,610.326233 606.572693,627.932190 605.011475,645.513550 &#xA;&#x9;C602.198730,677.188477 599.400085,708.866455 596.275818,740.511536 &#xA;&#x9;C593.397339,769.667542 590.467163,798.827332 586.898499,827.904236 &#xA;&#x9;C581.649597,870.670471 577.236511,913.633728 564.932983,955.167480 &#xA;&#x9;C554.091064,991.767456 537.344055,1025.246948 509.810852,1052.332031 &#xA;&#x9;C477.579102,1084.039062 438.923492,1099.932129 393.447540,1095.781738 &#xA;&#x9;C354.112549,1092.191895 321.743378,1074.114502 296.229309,1044.194946 &#xA;&#x9;C271.968781,1015.745422 259.824341,982.291626 256.803375,945.193298 &#xA;&#x9;C253.826736,908.639343 261.764404,873.612488 271.490021,838.926697 &#xA;&#x9;C290.964813,769.471191 326.417450,708.903625 374.826874,655.674194 &#xA;&#x9;C415.353119,611.112854 462.171875,574.100769 512.267639,541.060791 &#xA;&#x9;C517.784546,537.422180 519.756592,533.438538 520.144531,526.989319 &#xA;&#x9;C522.014343,495.906433 524.503235,464.861298 526.661926,433.795074 &#xA;&#x9;C528.174316,412.029602 529.545715,390.254120 530.913269,368.478882 &#xA;&#x9;C532.541809,342.548553 534.099976,316.613739 535.682190,290.680481 &#xA;&#x9;C535.722290,290.023743 535.687256,289.362427 535.687256,287.311584 &#xA;&#x9;C473.788574,331.472931 405.004211,360.625153 336.406403,391.859344 &#xA;&#x9;C323.173553,364.495636 310.109406,337.480835 296.851196,310.064697 &#xA;&#x9;C309.624115,304.255615 322.006317,298.598358 334.409760,292.988007 &#xA;&#x9;C371.282806,276.309418 407.831604,259.012024 442.742218,238.413651 &#xA;&#x9;C487.233246,212.162552 525.723450,178.833496 559.783691,140.184235 &#xA;&#x9;C566.198425,132.905212 566.262268,132.932617 575.221863,136.585236 &#xA;&#x9;C591.713928,143.308655 608.194702,150.059723 625.040649,156.931000 &#xA;M495.001282,804.499573 &#xA;&#x9;C500.012665,755.244507 505.024078,705.989502 510.143829,655.669617 &#xA;&#x9;C508.398315,656.767273 507.816925,657.042480 507.342590,657.444153 &#xA;&#x9;C484.696320,676.623291 462.537842,696.296082 442.771027,718.543091 &#xA;&#x9;C391.293396,776.479614 359.597321,843.512573 350.713684,920.678223 &#xA;&#x9;C347.949921,944.685181 352.844604,967.676697 368.884491,986.814880 &#xA;&#x9;C380.974487,1001.240051 396.247040,1009.222900 415.656586,1005.021057 &#xA;&#x9;C432.470032,1001.381165 444.017700,990.178955 453.467865,976.590576 &#xA;&#x9;C466.029327,958.528564 474.009247,938.263794 477.776764,916.867615 &#xA;&#x9;C484.294403,879.852844 489.302460,842.572205 495.001282,804.499573 &#xA;z"/>
  <path fill="#FF4149" stroke="none" d="&#xA;M733.997437,327.992981 &#xA;&#x9;C722.404053,333.063171 711.164856,337.998596 699.447205,343.144135 &#xA;&#x9;C700.057007,327.771729 700.532043,313.019318 701.256531,298.279205 &#xA;&#x9;C702.057312,281.984650 703.198120,265.706421 703.948914,249.409958 &#xA;&#x9;C704.176575,244.467911 705.506348,241.500229 710.703369,239.436234 &#xA;&#x9;C776.712708,213.220184 842.602051,186.702209 908.529480,160.279770 &#xA;&#x9;C910.497864,159.490906 912.547729,158.905136 914.320190,158.305618 &#xA;&#x9;C914.320190,168.786087 914.433655,178.926239 914.295959,189.062973 &#xA;&#x9;C914.031250,208.547821 913.573486,228.030106 913.331970,247.515121 &#xA;&#x9;C913.296570,250.366821 912.510010,251.869080 909.704407,253.061523 &#xA;&#x9;C851.221497,277.918457 792.791809,302.900696 733.997437,327.992981 &#xA;z"/>
  <path fill="#FED3D3" stroke="none" d="&#xA;M494.972534,804.951355 &#xA;&#x9;C489.302460,842.572205 484.294403,879.852844 477.776764,916.867615 &#xA;&#x9;C474.009247,938.263794 466.029327,958.528564 453.467865,976.590576 &#xA;&#x9;C444.017700,990.178955 432.470032,1001.381165 415.656586,1005.021057 &#xA;&#x9;C396.247040,1009.222900 380.974487,1001.240051 368.884491,986.814880 &#xA;&#x9;C352.844604,967.676697 347.949921,944.685181 350.713684,920.678223 &#xA;&#x9;C359.597321,843.512573 391.293396,776.479614 442.771027,718.543091 &#xA;&#x9;C462.537842,696.296082 484.696320,676.623291 507.342590,657.444153 &#xA;&#x9;C507.816925,657.042480 508.398315,656.767273 510.143829,655.669617 &#xA;&#x9;C505.024078,705.989502 500.012665,755.244507 494.972534,804.951355 &#xA;M487.302094,697.949341 &#xA;&#x9;C486.779816,698.362427 486.227142,698.742615 485.739563,699.193176 &#xA;&#x9;C428.052856,752.500977 388.323944,816.299561 372.119904,893.819092 &#xA;&#x9;C368.429169,911.475403 365.329742,929.191284 369.027466,947.274536 &#xA;&#x9;C371.942963,961.532471 377.699799,974.208069 389.809753,983.110107 &#xA;&#x9;C397.025177,988.414124 405.024536,990.641968 413.836212,987.891602 &#xA;&#x9;C423.447906,984.891541 430.517365,978.364380 436.553711,970.637817 &#xA;&#x9;C446.329132,958.125549 452.461731,943.769531 456.978271,928.710754 &#xA;&#x9;C466.924835,895.547180 470.640137,861.240173 474.888397,827.078674 &#xA;&#x9;C478.914978,794.700256 482.193237,762.227051 485.609711,729.775452 &#xA;&#x9;C486.720764,719.222351 487.230286,708.605896 488.418304,698.159607 &#xA;&#x9;C488.419830,697.910522 488.421356,697.661438 488.422852,697.412354 &#xA;&#x9;C488.280273,697.606506 488.137695,697.800659 487.302094,697.949341 &#xA;z"/>
  <path fill="#2A374D" stroke="none" d="&#xA;M488.014954,698.018433 &#xA;&#x9;C487.230286,708.605896 486.720764,719.222351 485.609711,729.775452 &#xA;&#x9;C482.193237,762.227051 478.914978,794.700256 474.888397,827.078674 &#xA;&#x9;C470.640137,861.240173 466.924835,895.547180 456.978271,928.710754 &#xA;&#x9;C452.461731,943.769531 446.329132,958.125549 436.553711,970.637817 &#xA;&#x9;C430.517365,978.364380 423.447906,984.891541 413.836212,987.891602 &#xA;&#x9;C405.024536,990.641968 397.025177,988.414124 389.809753,983.110107 &#xA;&#x9;C377.699799,974.208069 371.942963,961.532471 369.027466,947.274536 &#xA;&#x9;C365.329742,929.191284 368.429169,911.475403 372.119904,893.819092 &#xA;&#x9;C388.323944,816.299561 428.052856,752.500977 485.739563,699.193176 &#xA;&#x9;C486.227142,698.742615 486.779816,698.362427 487.652222,697.976074 &#xA;&#x9;C488.002350,698.002808 488.014923,698.018433 488.014954,698.018433 &#xA;z"/>
  <path fill="#2A374D" stroke="none" d="&#xA;M487.998718,697.998840 &#xA;&#x9;C488.137695,697.800659 488.280273,697.606506 488.422852,697.412354 &#xA;&#x9;C488.421356,697.661438 488.419830,697.910522 488.216614,698.088989 &#xA;&#x9;C488.014923,698.018433 488.002350,698.002808 487.998718,697.998840 &#xA;z"/>
</svg>